<svg width="209" height="209" viewBox="0 0 209 209" fill="none" xmlns="http://www.w3.org/2000/svg">
<rect width="209" height="209" fill="#ED8F03"/>
<path d="M144.639 132.516C142.453 127.34 139.282 122.638 135.302 118.673C131.333 114.696 126.633 111.526 121.459 109.336C121.412 109.313 121.366 109.301 121.32 109.278C128.537 104.065 133.228 95.5741 133.228 85.9941C133.228 70.1238 120.37 57.2654 104.5 57.2654C88.6293 57.2654 75.7709 70.1238 75.7709 85.9941C75.7709 95.5741 80.4624 104.065 87.6794 109.29C87.633 109.313 87.5867 109.325 87.5404 109.348C82.3507 111.537 77.6938 114.676 73.6973 118.685C69.7206 122.653 66.5499 127.354 64.3605 132.528C62.2096 137.593 61.0495 143.023 60.9432 148.525C60.9401 148.649 60.9618 148.772 61.0069 148.887C61.0521 149.002 61.1199 149.107 61.2063 149.196C61.2926 149.284 61.3958 149.354 61.5098 149.402C61.6238 149.45 61.7462 149.475 61.8699 149.475H68.8204C69.3301 149.475 69.7355 149.07 69.7471 148.572C69.9788 139.629 73.5699 131.253 79.918 124.905C86.4862 118.337 95.2091 114.723 104.5 114.723C113.79 114.723 122.513 118.337 129.081 124.905C135.429 131.253 139.02 139.629 139.252 148.572C139.264 149.081 139.669 149.475 140.179 149.475H147.129C147.253 149.475 147.375 149.45 147.489 149.402C147.603 149.354 147.706 149.284 147.793 149.196C147.879 149.107 147.947 149.002 147.992 148.887C148.037 148.772 148.059 148.649 148.056 148.525C147.94 142.988 146.793 137.601 144.639 132.516V132.516ZM104.5 105.919C99.1824 105.919 94.1781 103.845 90.4132 100.08C86.6484 96.3155 84.5748 91.3112 84.5748 85.9941C84.5748 80.6769 86.6484 75.6726 90.4132 71.9077C94.1781 68.1429 99.1824 66.0693 104.5 66.0693C109.817 66.0693 114.821 68.1429 118.586 71.9077C122.351 75.6726 124.424 80.6769 124.424 85.9941C124.424 91.3112 122.351 96.3155 118.586 100.08C114.821 103.845 109.817 105.919 104.5 105.919Z" fill="black"/>
</svg>
